#!OML:ASF X:\für Bonn\!DataBase\2005_08_10_Bjorn_Final\c3d\bjorn.ASF
:FULLY-SPECIFIED
:DEGREES
93
root 0.0612054 9.56261 4.6458 -180.632 -3.64471 179.261
lowerback 48.8286 1.17806 8.20685
upperback 13.9553 -1.40318 0.191638
thorax -4.59779 -3.03578 -2.87212
lowerneck -19.4425 -1.04875 2.06957
upperneck -5.29345 -2.9577 0.667663
head 1.56423 -1.97879 -0.366724
rclavicle 2.90226e-014 1.15295e-014
rhumerus 79.6888 -9.4479 -47.8288
rradius 17.8598
rwrist 22.3574
rhand -11.4172 7.98492
rfingers 7.12502
rthumb 14.6185 -21.4798
lclavicle 2.90226e-014 1.15295e-014
lhumerus 90.18 -0.353218 69.0468
lradius 7.88341
lwrist -53.7636
lhand -23.187 -10.6182
lfingers 7.12502
lthumb 3.26252 19.3366
rfemur -91.1253 -48.3398 17.9079
rtibia 140.974
rfoot -38.8971 35.3028
rtoes -32.8993
lfemur -86.7769 19.5339 -25.9465
ltibia 142.45
lfoot -34.5237 -5.26519
ltoes -34.3595
94
root 0.0530085 9.71142 4.67789 -180.132 -3.6405 179.178
lowerback 48.6515 1.15037 8.14741
upperback 13.8738 -1.39765 0.157946
thorax -4.66789 -3.00447 -2.88664
lowerneck -19.4078 -1.03235 2.16812
upperneck -5.29652 -2.95091 0.542036
head 1.55433 -1.97973 -0.423185
rclavicle 2.0276e-014 -5.56597e-015
rhumerus 79.1024 -9.175 -46.3906
rradius 17.9842
rwrist 21.6584
rhand -12.2259 7.89795
rfingers 7.12502
rthumb 13.8393 -21.6216
lclavicle 2.0276e-014 -5.56597e-015
lhumerus 89.9203 -0.500252 69.0027
lradius 7.71545
lwrist -54.5314
lhand -22.4598 -10.9118
lfingers 7.12502
lthumb 3.96479 19.031
rfemur -90.4133 -45.0032 17.6584
rtibia 139.788
rfoot -37.9443 33.8371
rtoes -32.6706
lfemur -86.4531 17.6485 -25.6992
ltibia 141.249
lfoot -34.0736 -5.25161
ltoes -33.8344
95
root 0.0449936 9.86562 4.71053 -179.598 -3.66441 179.037
lowerback 48.4168 1.1234 8.00652
upperback 13.7823 -1.41917 0.143334
thorax -4.74559 -2.98552 -2.83402
lowerneck -19.3066 -1.00236 2.21954
upperneck -5.43173 -2.92552 0.397478
head 1.48844 -1.97888 -0.473359
rclavicle 3.10104e-014 -3.97569e-015
rhumerus 78.605 -8.83725 -44.8525
rradius 18.1339
rwrist 20.521
rhand -12.6277 7.76659
rfingers 7.12502
rthumb 13.4521 -21.779
lclavicle 3.10104e-014 -3.97569e-015
lhumerus 89.5931 -0.584044 68.9869
lradius 7.67539
lwrist -54.9848
lhand -22.0864 -11.0888
lfingers 7.12502
lthumb 4.32537 18.847
rfemur -89.8075 -41.9476 17.3801
rtibia 138.572
rfoot -37.046 32.4841
rtoes -32.3759
lfemur -86.1397 15.7638 -25.535
ltibia 139.982
lfoot -33.5938 -5.15746
ltoes -33.3493
96
root 0.0378241 10.0277 4.74185 -179.045 -3.66471 178.895
lowerback 47.1467 1.24252 7.79364
upperback 14.6583 -1.45724 0.261011
thorax -4.74816 -2.96036 -2.83691
lowerneck -19.1424 -0.951248 2.30228
upperneck -5.81988 -2.90282 0.268093
head 1.32577 -1.99507 -0.519451
rclavicle -1.43125e-014 -1.43125e-014
rhumerus 78.1816 -8.59555 -43.456
rradius 18.2962
rwrist 19.5253
rhand -12.6539 7.62306
rfingers 7.12502
rthumb 13.4268 -21.9242
lclavicle -1.43125e-014 -1.43125e-014
lhumerus 89.3507 -0.702128 68.9513
lradius 7.625
lwrist -55.5303
lhand -22.5061 -10.985
lfingers 7.12502
lthumb 3.92001 18.9587
rfemur -89.2114 -39.0379 17.1117
rtibia 137.292
rfoot -36.2939 31.1543
rtoes -32.1401
lfemur -85.8144 14.1418 -25.3675
ltibia 138.666
lfoot -33.1459 -5.18716
ltoes -32.8159
97
root 0.0306687 10.1919 4.772 -178.518 -3.65261 178.736
lowerback 46.8622 1.23285 7.60972
upperback 14.5471 -1.46645 0.223541
thorax -4.81993 -2.93295 -2.78702
lowerneck -18.7588 -0.862421 2.37963
upperneck -6.54583 -2.84901 0.11522
head 1.01356 -2.0134 -0.561002
rclavicle -7.55382e-015 3.45885e-014
rhumerus 77.8353 -8.31825 -42.3701
rradius 18.4213
rwrist 19.0049
rhand -12.5078 7.57883
rfingers 7.12502
rthumb 13.5676 -21.9591
lclavicle -7.55382e-015 3.45885e-014
lhumerus 89.2024 -0.714171 68.9102
lradius 7.38012
lwrist -55.2971
lhand -22.7597 -11.2111
lfingers 7.12502
lthumb 3.67515 18.7369
rfemur -88.5868 -36.4722 16.8201
rtibia 135.981
rfoot -35.624 30.0305
rtoes -31.6755
lfemur -85.4279 12.672 -25.242
ltibia 137.316
lfoot -32.7658 -5.1135
ltoes -32.4312
98
root 0.0254495 10.3588 4.80199 -178.015 -3.65812 178.597
lowerback 46.5384 1.22029 7.48074
upperback 14.4593 -1.46234 0.172403
thorax -4.85209 -2.89623 -2.78723
lowerneck -18.5194 -0.805367 2.40637
upperneck -7.22391 -2.83921 0.0639943
head 0.745706 -2.05169 -0.566992
rclavicle -4.37326e-015 -5.56597e-015
rhumerus 77.6143 -8.1619 -41.747
rradius 18.5431
rwrist 18.2491
rhand -11.7812 7.5668
rfingers 7.12502
rthumb 14.2678 -21.9231
lclavicle -4.37326e-015 -5.56597e-015
lhumerus 89.079 -0.786989 68.8512
lradius 7.25939
lwrist -55.3772
lhand -23.0827 -11.3003
lfingers 7.12502
lthumb 3.36321 18.6529
rfemur -87.9619 -34.1726 16.5695
rtibia 134.656
rfoot -35.1091 28.9313
rtoes -31.2847
lfemur -84.9899 11.3929 -25.1096
ltibia 135.934
lfoot -32.4176 -5.00185
ltoes -32.2321
99
root 0.0187467 10.5263 4.82962 -177.568 -3.62405 178.458
lowerback 46.2042 1.2305 7.31019
upperback 14.392 -1.46248 0.138458
thorax -4.85821 -2.8683 -2.7473
lowerneck -18.7452 -0.739183 2.41404
upperneck -7.38171 -2.80266 -0.0173868
head 0.729505 -2.05686 -0.59368
rclavicle 7.55382e-015 1.82882e-014
rhumerus 77.466 -7.96363 -41.1546
rradius 18.6474
rwrist 17.6206
rhand -11.0955 7.515
rfingers 7.12502
rthumb 14.9285 -21.927
lclavicle 7.55382e-015 1.82882e-014
lhumerus 88.9264 -0.819475 68.8005
lradius 7.23144
lwrist -55.771
lhand -23.2977 -11.2727
lfingers 7.12502
lthumb 3.15565 18.6837
rfemur -87.2544 -32.0964 16.2731
rtibia 133.29
rfoot -34.6592 28.0143
rtoes -30.8502
lfemur -84.4922 10.3011 -24.9976
ltibia 134.548
lfoot -32.1163 -4.9304
ltoes -31.9677
100
root 0.0114155 10.7018 4.85406 -177.046 -3.56046 178.336
lowerback 45.7807 1.24896 7.11822
upperback 14.2962 -1.44079 0.11878
thorax -4.87203 -2.82375 -2.69194
lowerneck -19.2661 -0.705506 2.34705
upperneck -7.16502 -2.77941 -0.0750505
head 0.888215 -2.0502 -0.611794
rclavicle 1.07344e-014 -8.74653e-015
rhumerus 77.3026 -7.75238 -40.5233
rradius 18.7989
rwrist 17.0923
rhand -11.2187 7.42884
rfingers 7.12502
rthumb 14.8098 -22.022
lclavicle 1.07344e-014 -8.74653e-015
lhumerus 88.7565 -0.82199 68.776
lradius 7.19184
lwrist -56.0375
lhand -23.4448 -11.2991
lfingers 7.12502
lthumb 3.01356 18.6593
rfemur -86.6283 -30.0405 16.0515
rtibia 131.863
rfoot -34.2793 26.9977
rtoes -30.4527
lfemur -84.0233 9.30687 -24.8977
ltibia 133.1
lfoot -31.8422 -4.78354
ltoes -31.8786
101
root 0.00449684 10.8788 4.87765 -176.485 -3.50205 178.288
lowerback 45.2852 1.24105 7.00362
upperback 14.1792 -1.40144 0.0776297
thorax -4.88683 -2.7601 -2.70716
lowerneck -19.8606 -0.677098 2.33997
upperneck -6.82698 -2.76612 -0.125745
head 1.10085 -2.04326 -0.641833
rclavicle -1.59028e-015 -2.78299e-015
rhumerus 77.1324 -7.55671 -40.0768
rradius 18.9095
rwrist 16.7173
rhand -11.5302 7.34968
rfingers 7.12502
rthumb 14.5097 -22.1229
lclavicle -1.59028e-015 -2.78299e-015
lhumerus 88.5888 -0.887818 68.7083
lradius 7.18109
lwrist -56.3388
lhand -24.378 -11.0673
lfingers 7.12502
lthumb 2.11233 18.902
rfemur -86.07 -28.1418 15.9579
rtibia 130.418
rfoot -33.9551 25.9845
rtoes -30.1777
lfemur -83.6179 8.47757 -24.7207
ltibia 131.635
lfoot -31.5711 -4.76254
ltoes -31.8628
102
root -0.00126549 11.0575 4.9003 -176.01 -3.44325 178.224
lowerback 44.8603 1.24487 6.88084
upperback 14.0594 -1.35609 0.0424054
thorax -4.91917 -2.69921 -2.71135
lowerneck -20.4475 -0.659969 2.33742
upperneck -6.49297 -2.76758 -0.193752
head 1.31231 -2.04431 -0.679317
rclavicle -1.31198e-014 7.95139e-015
rhumerus 76.9515 -7.37705 -39.6291
rradius 19.0349
rwrist 16.3904
rhand -11.8123 7.16121
rfingers 7.12502
rthumb 14.2378 -22.3308
lclavicle -1.31198e-014 7.95139e-015
lhumerus 88.4436 -0.946352 68.6535
lradius 7.28935
lwrist -57.2847
lhand -25.0366 -10.644
lfingers 7.12502
lthumb 1.47624 19.3306
rfemur -85.3758 -26.4234 15.8163
rtibia 128.93
rfoot -33.725 25.0517
rtoes -29.7668
lfemur -83.0874 7.74686 -24.5648
ltibia 130.142
lfoot -31.2954 -4.77243
ltoes -31.6815
103
root -0.00777734 11.236 4.92264 -175.579 -3.4008 178.123
lowerback 44.4627 1.23789 6.72765
upperback 13.9174 -1.32951 0.0101813
thorax -4.9837 -2.64851 -2.6873
lowerneck -20.9179 -0.639268 2.30871
upperneck -6.24704 -2.75679 -0.269793
head 1.47581 -2.04158 -0.71081
rclavicle 5.56597e-015 0
rhumerus 76.8134 -7.21937 -39.3096
rradius 19.1425
rwrist 16.506
rhand -12.3102 7.02302
rfingers 7.12502
rthumb 13.7581 -22.5021
lclavicle 5.56597e-015 0
lhumerus 88.5013 -0.875301 68.6133
lradius 7.08791
lwrist -57.2157
lhand -24.8212 -10.891
lfingers 7.12502
lthumb 1.68429 19.0821
rfemur -84.6549 -24.9379 15.6369
rtibia 127.435
rfoot -33.5725 24.1342
rtoes -29.5565
lfemur -82.4904 7.0259 -24.4644
ltibia 128.622
lfoot -31.0144 -4.8942
ltoes -31.0946
104
root -0.0131288 11.4187 4.94297 -175.218 -3.362 178.062
lowerback 44.1086 1.21823 6.63309
upperback 13.774 -1.29799 -0.0432175
thorax -5.05758 -2.59535 -2.71585
lowerneck -21.2596 -0.613157 2.35961
upperneck -6.14498 -2.76104 -0.347682
head 1.56764 -2.05368 -0.753505
rclavicle 9.54166e-015 1.59028e-014
rhumerus 76.7074 -7.14797 -39.1055
rradius 19.2542
rwrist 16.7478
rhand -12.7589 6.79219
rfingers 7.12502
rthumb 13.3256 -22.7617
lclavicle 9.54166e-015 1.59028e-014
lhumerus 88.6644 -0.781543 68.5349
lradius 6.78645
lwrist -56.874
lhand -24.55 -11.2096
lfingers 7.12502
lthumb 1.94617 18.7613
rfemur -83.7897 -23.5433 15.4924
rtibia 125.88
rfoot -33.5204 23.1886
rtoes -29.455
lfemur -81.7794 6.42512 -24.3269
ltibia 127.068
lfoot -30.7489 -5.15858
ltoes -30.2033
